<mxfile host="app.diagrams.net" agent="Mozilla/5.0 (Windows NT 10.0; Win64; x64) AppleWebKit/537.36 (KHTML, like Gecko) Chrome/129.0.0.0 Safari/537.36" version="24.7.16">
  <diagram name="Page-1" id="xl9KR64cfbDX5wEYsxdN">
    <mxGraphModel dx="794" dy="454" grid="1" gridSize="10" guides="1" tooltips="1" connect="1" arrows="1" fold="1" page="1" pageScale="1" pageWidth="827" pageHeight="1169" math="0" shadow="0">
      <root>
        <mxCell id="0" />
        <mxCell id="1" parent="0" />
        <mxCell id="xsOdGMx3UJAStOk9C91a-1" value="Image Capturing" style="rounded=1;whiteSpace=wrap;html=1;fillColor=#dae8fc;strokeColor=#6c8ebf;" vertex="1" parent="1">
          <mxGeometry x="200" y="70" width="120" height="60" as="geometry" />
        </mxCell>
        <mxCell id="xsOdGMx3UJAStOk9C91a-2" value="Image Processing via embeddings" style="rounded=1;whiteSpace=wrap;html=1;fillColor=#dae8fc;strokeColor=#6c8ebf;" vertex="1" parent="1">
          <mxGeometry x="200" y="170" width="120" height="60" as="geometry" />
        </mxCell>
        <mxCell id="xsOdGMx3UJAStOk9C91a-3" value="Comparison using cosine similarity" style="rounded=1;whiteSpace=wrap;html=1;fillColor=#dae8fc;strokeColor=#6c8ebf;" vertex="1" parent="1">
          <mxGeometry x="200" y="270" width="120" height="60" as="geometry" />
        </mxCell>
        <mxCell id="xsOdGMx3UJAStOk9C91a-5" value="comparing cosine value with threshold" style="rounded=1;whiteSpace=wrap;html=1;fillColor=#dae8fc;strokeColor=#6c8ebf;" vertex="1" parent="1">
          <mxGeometry x="200" y="370" width="120" height="60" as="geometry" />
        </mxCell>
        <mxCell id="xsOdGMx3UJAStOk9C91a-6" value="Output" style="text;html=1;align=center;verticalAlign=middle;resizable=0;points=[];autosize=1;strokeColor=none;fillColor=none;" vertex="1" parent="1">
          <mxGeometry x="230" y="470" width="60" height="30" as="geometry" />
        </mxCell>
        <mxCell id="xsOdGMx3UJAStOk9C91a-7" value="" style="endArrow=classic;html=1;rounded=0;exitX=0.5;exitY=1;exitDx=0;exitDy=0;entryX=0.5;entryY=0;entryDx=0;entryDy=0;" edge="1" parent="1" source="xsOdGMx3UJAStOk9C91a-1" target="xsOdGMx3UJAStOk9C91a-2">
          <mxGeometry width="50" height="50" relative="1" as="geometry">
            <mxPoint x="380" y="330" as="sourcePoint" />
            <mxPoint x="430" y="280" as="targetPoint" />
          </mxGeometry>
        </mxCell>
        <mxCell id="xsOdGMx3UJAStOk9C91a-8" value="" style="endArrow=classic;html=1;rounded=0;exitX=0.5;exitY=1;exitDx=0;exitDy=0;entryX=0.5;entryY=0;entryDx=0;entryDy=0;" edge="1" parent="1" source="xsOdGMx3UJAStOk9C91a-2" target="xsOdGMx3UJAStOk9C91a-3">
          <mxGeometry width="50" height="50" relative="1" as="geometry">
            <mxPoint x="380" y="330" as="sourcePoint" />
            <mxPoint x="430" y="280" as="targetPoint" />
          </mxGeometry>
        </mxCell>
        <mxCell id="xsOdGMx3UJAStOk9C91a-9" value="" style="endArrow=classic;html=1;rounded=0;exitX=0.5;exitY=1;exitDx=0;exitDy=0;entryX=0.5;entryY=0;entryDx=0;entryDy=0;" edge="1" parent="1" source="xsOdGMx3UJAStOk9C91a-3" target="xsOdGMx3UJAStOk9C91a-5">
          <mxGeometry width="50" height="50" relative="1" as="geometry">
            <mxPoint x="380" y="330" as="sourcePoint" />
            <mxPoint x="430" y="280" as="targetPoint" />
          </mxGeometry>
        </mxCell>
        <mxCell id="xsOdGMx3UJAStOk9C91a-10" value="" style="endArrow=classic;html=1;rounded=0;exitX=0.5;exitY=1;exitDx=0;exitDy=0;entryX=0.5;entryY=0;entryDx=0;entryDy=0;entryPerimeter=0;" edge="1" parent="1" source="xsOdGMx3UJAStOk9C91a-5" target="xsOdGMx3UJAStOk9C91a-6">
          <mxGeometry width="50" height="50" relative="1" as="geometry">
            <mxPoint x="380" y="330" as="sourcePoint" />
            <mxPoint x="430" y="280" as="targetPoint" />
          </mxGeometry>
        </mxCell>
      </root>
    </mxGraphModel>
  </diagram>
</mxfile>
